<svg width="32" height="32" viewBox="0 0 32 32" fill="none" xmlns="http://www.w3.org/2000/svg">
<path d="M9.01334 29.3334H22.9867C26.6667 29.3334 28.1333 27.08 28.3067 24.3334L29 13.32C29.1867 10.44 26.8933 8.00002 24 8.00002C23.1867 8.00002 22.44 7.53335 22.0667 6.81335L21.1067 4.88002C20.4933 3.66669 18.8933 2.66669 17.5333 2.66669H14.48C13.1067 2.66669 11.5067 3.66669 10.8933 4.88002L9.93334 6.81335C9.56 7.53335 8.81334 8.00002 8 8.00002C5.10667 8.00002 2.81334 10.44 3 13.32L3.69334 24.3334C3.85334 27.08 5.33334 29.3334 9.01334 29.3334Z" stroke="#5454D4" stroke-width="2" stroke-linecap="round" stroke-linejoin="round"/>
<path d="M14 10.6667H18" stroke="#5454D4" stroke-width="2" stroke-linecap="round" stroke-linejoin="round"/>
<path d="M16 24C18.3867 24 20.3333 22.0533 20.3333 19.6666C20.3333 17.28 18.3867 15.3333 16 15.3333C13.6133 15.3333 11.6667 17.28 11.6667 19.6666C11.6667 22.0533 13.6133 24 16 24Z" stroke="#5454D4" stroke-width="2" stroke-linecap="round" stroke-linejoin="round"/>
</svg>
